<?xml version="1.0" encoding="UTF-8" standalone="no"?>
<svg
   height="48"
   viewBox="0 96 960 960"
   width="48"
   version="1.1"
   id="svg4"
   sodipodi:docname="clear2.svg"
   inkscape:version="1.3.2 (091e20e, 2023-11-25, custom)"
   inkscape:export-filename="bluetooth.png"
   inkscape:export-xdpi="1024"
   inkscape:export-ydpi="1024"
   xmlns:inkscape="http://www.inkscape.org/namespaces/inkscape"
   xmlns:sodipodi="http://sodipodi.sourceforge.net/DTD/sodipodi-0.dtd"
   xmlns="http://www.w3.org/2000/svg"
   xmlns:svg="http://www.w3.org/2000/svg"
   xmlns:rdf="http://www.w3.org/1999/02/22-rdf-syntax-ns#"
   xmlns:cc="http://creativecommons.org/ns#"
   xmlns:dc="http://purl.org/dc/elements/1.1/">
  <g
     id="path3"
     style="stroke-width:22.6771654;stroke-dasharray:none;fill:#ffffff;stroke:#ffffff">
    <path
       style="color:#000000;fill:#ffffff;stroke-linecap:round;stroke-linejoin:bevel;stroke-width:22.6771654;stroke-dasharray:none;stroke:#ffffff"
       d="m 477.45117,219.35156 c -113.29705,0.884 -222.79296,55.82812 -290.42578,153.24219 -94.097842,135.53262 -82.84562,318.25893 27.16992,441.22266 110.01554,122.96372 290.36913,154.39438 435.49414,75.89453 C 794.81446,811.21108 867.21373,643.06281 824.50977,483.68945 A 22.677151,22.677151 0 0 0 796.73633,467.6543 22.677151,22.677151 0 0 0 780.70117,495.42773 C 818.03368,634.75455 754.982,781.19249 628.11133,849.81836 501.24065,918.44423 344.17349,891.07114 247.99609,783.57422 151.8187,676.0773 142.01936,516.94384 224.28125,398.45898 306.54313,279.97413 459.06456,233.5366 593.39648,286.07812 A 22.677151,22.677151 0 0 0 622.77734,273.2207 22.677151,22.677151 0 0 0 609.91797,243.83984 C 566.70115,226.93636 521.7848,219.00565 477.45117,219.35156 Z"
       id="path10" />
    <g
       id="g9"
       style="stroke-width:22.6771654;stroke-dasharray:none;fill:#ffffff;stroke:#ffffff">
      <path
         style="color:#000000;fill:#ffffff;stroke-linecap:round;stroke-width:22.6771654;stroke-dasharray:none;stroke:#ffffff"
         d="m 525.77344,131.27539 a 17.007851,17.007851 0 0 0 -8.27344,3.01172 17.007851,17.007851 0 0 0 -4.17578,23.6875 l 73.02148,104.28516 -104.28515,73.02148 a 17.007851,17.007851 0 0 0 -4.17774,23.6875 17.007851,17.007851 0 0 0 23.6875,4.17578 L 633.7207,270.61328 541.1875,138.46484 a 17.007851,17.007851 0 0 0 -15.41406,-7.18945 z"
         id="path9" />
    </g>
  </g>
  <metadata
     id="metadata10">
    <rdf:RDF>
      <cc:Work
         rdf:about="">
        <dc:format>image/svg+xml</dc:format>
        <dc:type
           rdf:resource="http://purl.org/dc/dcmitype/StillImage" />
      </cc:Work>
    </rdf:RDF>
  </metadata>
  <defs
     id="defs8" />
  <sodipodi:namedview
     pagecolor="#ffffff"
     bordercolor="#666666"
     borderopacity="1"
     objecttolerance="10"
     gridtolerance="10"
     guidetolerance="10"
     inkscape:pageopacity="0"
     inkscape:pageshadow="2"
     inkscape:window-width="1920"
     inkscape:window-height="1001"
     id="namedview6"
     showgrid="false"
     inkscape:zoom="9.8333334"
     inkscape:cx="24"
     inkscape:cy="24"
     inkscape:window-x="-11"
     inkscape:window-y="-11"
     inkscape:window-maximized="1"
     inkscape:current-layer="svg4"
     inkscape:showpageshadow="0"
     inkscape:pagecheckerboard="1"
     inkscape:deskcolor="#d1d1d1" />
</svg>
